<?xml version="1.0" standalone="no"?>
<!DOCTYPE svg PUBLIC "-//W3C//DTD SVG 20010904//EN"
 "http://www.w3.org/TR/2001/REC-SVG-20010904/DTD/svg10.dtd">
<svg version="1.0" xmlns="http://www.w3.org/2000/svg"
 width="586.000000pt" height="586.000000pt" viewBox="0 0 586.000000 586.000000"
 preserveAspectRatio="xMidYMid meet">
<metadata>
Created by potrace 1.11, written by Peter Selinger 2001-2013
</metadata>
<g transform="translate(0.000000,586.000000) scale(0.100000,-0.100000)"
fill="#000000" stroke="none">
<path d="M2570 5103 c-117 -44 -278 -146 -379 -239 -391 -363 -495 -929 -256
-1405 137 -273 385 -488 686 -594 22 -8 37 -10 34 -5 -3 6 -11 10 -17 10 -20
0 -151 71 -218 118 -133 94 -270 253 -345 402 -156 308 -160 670 -11 986 123
259 330 449 549 505 48 12 96 54 98 87 1 9 2 24 3 32 6 61 -83 126 -144 103z"/>
<path d="M2890 4768 c-479 -77 -820 -487 -805 -968 4 -127 7 -145 35 -242 93
-311 327 -546 640 -642 92 -28 212 -44 300 -41 70 3 157 15 184 25 12 4 24 8
29 8 27 2 122 37 177 65 223 113 374 279 471 517 29 74 34 96 34 170 0 72 -4
94 -29 147 -35 76 -104 144 -184 181 -48 22 -71 26 -142 26 -75 0 -93 -4 -152
-32 -190 -91 -259 -320 -154 -508 14 -25 24 -50 21 -54 -2 -4 -37 -24 -77 -43
-286 -141 -626 -55 -808 205 -125 179 -151 427 -62 617 31 68 124 176 202 236
77 59 204 118 299 139 89 20 243 20 332 -1 168 -39 332 -144 435 -278 30 -40
73 -47 113 -19 29 21 52 74 44 105 -14 56 -159 195 -278 265 -89 53 -194 92
-320 120 -41 9 -252 11 -305 2z"/>
<path d="M1601 3582 c-46 -22 -75 -85 -61 -133 21 -72 100 -226 163 -318 176
-254 452 -438 770 -513 101 -23 353 -34 437 -18 25 4 59 10 75 13 187 30 418
142 580 281 55 47 80 73 157 159 45 52 113 156 155 242 62 124 61 140 -2 36
-32 -52 -61 -99 -66 -105 -148 -179 -263 -274 -436 -360 -172 -85 -323 -120
-518 -120 -257 -1 -471 65 -688 211 -190 128 -353 345 -383 512 -19 106 -98
155 -183 113z"/>
<path d="M2846 2177 c-16 -11 -17 -43 -14 -422 l3 -410 29 -57 c36 -74 95
-131 171 -168 73 -35 157 -46 180 -24 32 32 6 60 -69 73 -117 21 -210 108
-231 215 -2 11 -4 191 -4 398 -1 328 -3 379 -17 392 -19 19 -25 20 -48 3z"/>
<path d="M1260 1785 c-97 -27 -182 -100 -227 -193 -23 -49 -27 -70 -27 -147
-1 -78 3 -98 28 -152 57 -124 180 -206 310 -207 39 0 84 3 99 6 46 11 110 45
154 82 l40 35 -2 -82 c-5 -160 -95 -269 -240 -291 -64 -10 -75 -16 -75 -40 0
-38 23 -49 82 -42 62 8 147 47 193 87 48 42 96 122 110 182 7 33 11 132 10
272 -2 198 -4 225 -23 275 -66 168 -257 263 -432 215z m219 -94 c191 -98 208
-360 31 -480 -141 -95 -322 -42 -406 119 -28 54 -26 172 4 230 41 78 106 132
180 149 56 13 146 5 191 -18z"/>
<path d="M2138 1779 c-63 -23 -91 -41 -141 -92 -40 -41 -81 -118 -92 -172 -45
-232 134 -441 368 -429 81 4 171 41 226 92 18 18 34 32 35 32 1 0 0 -21 -1
-47 -3 -54 3 -67 33 -77 43 -13 48 11 47 222 -1 175 -3 203 -22 252 -71 187
-270 283 -453 219z m233 -88 c62 -30 107 -75 137 -140 21 -45 24 -64 20 -125
-5 -77 -21 -116 -70 -172 -102 -116 -297 -117 -404 -2 -47 50 -66 96 -71 176
-5 66 -3 77 26 135 33 67 88 116 157 141 55 20 149 14 205 -13z"/>
<path d="M3561 1779 c-173 -61 -271 -233 -236 -414 19 -98 102 -201 200 -246
80 -37 146 -44 230 -24 104 24 152 70 110 105 -12 10 -28 8 -83 -13 -88 -33
-161 -30 -234 10 -29 15 -53 33 -55 39 -2 6 111 76 251 155 141 79 258 152
261 161 3 9 -2 32 -11 50 -80 158 -269 235 -433 177z m233 -89 c47 -22 111
-81 111 -102 0 -15 -464 -280 -476 -273 -14 9 -29 77 -29 130 1 93 43 172 119
223 82 56 189 64 275 22z"/>
<path d="M4409 1787 c-240 -68 -339 -346 -197 -555 78 -114 242 -173 379 -137
266 70 357 401 165 596 -64 64 -138 98 -228 104 -45 3 -91 0 -119 -8z m216
-98 c203 -102 202 -395 -1 -495 -182 -89 -396 41 -397 241 -1 74 15 122 57
175 82 103 225 137 341 79z"/>
</g>
</svg>
