<svg xmlns="http://www.w3.org/2000/svg" xmlns:xlink="http://www.w3.org/1999/xlink" preserveAspectRatio="xMidYMid" width="5" height="30" viewBox="0 0 5 30">
  <defs>
    <style>
      .cls-1 {
        fill: #fff;
        fill-rule: evenodd;
      }
    </style>
  </defs>
  <path d="M2.500,17.312 C1.119,17.312 0.000,16.277 0.000,15.000 C0.000,13.723 1.119,12.687 2.500,12.687 C3.881,12.687 5.000,13.723 5.000,15.000 C5.000,16.277 3.881,17.312 2.500,17.312 ZM2.500,4.625 C1.119,4.625 0.000,3.590 0.000,2.312 C0.000,1.035 1.119,-0.000 2.500,-0.000 C3.881,-0.000 5.000,1.035 5.000,2.312 C5.000,3.590 3.881,4.625 2.500,4.625 ZM2.500,25.375 C3.881,25.375 5.000,26.410 5.000,27.687 C5.000,28.965 3.881,30.000 2.500,30.000 C1.119,30.000 0.000,28.965 0.000,27.687 C0.000,26.410 1.119,25.375 2.500,25.375 Z" class="cls-1"/>
</svg>
